<svg xmlns="http://www.w3.org/2000/svg" width="468" height="1130" viewBox="0 0 123.825 298.979">
  <g>
    <g>
      <text x="-33.274" y="25.701" transform="rotate(-90)" font-size="5.5">
        <tspan>Architecture</tspan>
      </text>
      <path
        d="M19.208 36.323h8.783c.254 0 .458.21.458.473v36.991l-4.814 5.351-4.886-5.35V36.795c0-.262.205-.473.46-.473z"
        fill="#0f0" />
      <path d="M18.75 120.354l4.884 5.35 4.816-5.35V74.846l-4.816 5.35-4.885-5.35z" fill="#0c0" />
      <path d="M18.75 237.829l4.884 5.35 4.816-5.35V121.412l-4.816 5.35-4.885-5.35z" fill="green" />
    </g>
    <g>
      <text x="-53.127" y="38.085" transform="rotate(-90)" font-size="5.5">
        <tspan x="-53.127" y="38.085">
          <tspan>WhatsApp</tspan>
        </tspan>
        <tspan x="-53.127" y="44.96">
          <tspan>Cloud-Connector</tspan>
        </tspan>
      </text>
      <path d="M35.083 57.49h8.783c.254 0 .458.21.458.472v24.821l-4.814 5.35-4.886-5.35v-24.82c0-.263.205-.474.46-.474z"
        fill="#0f0" />
      <path d="M34.624 120.883l4.885 5.35 4.816-5.35V83.842l-4.816 5.35-4.885-5.35z" fill="#0c0" />
    </g>
    <g>
      <text x="-68.829" y="56.871" transform="rotate(-90)" font-size="5.5">
        <tspan>Integration Middleware</tspan>
      </text>
      <path
        d="M50.958 73.364h8.783c.254 0 .458.211.458.473v19.53l-4.814 5.35-4.886-5.35v-19.53c0-.262.205-.473.46-.473z"
        fill="#0f0" />
      <path d="M50.5 120.883l4.884 5.35 4.816-5.35V94.425l-4.816 5.35-4.885-5.35z" fill="#0c0" />
    </g>
    <g>
      <text x="-116.454" y="72.746" transform="rotate(-90)" font-size="5.5">
        <tspan>Signal Connector</tspan>
      </text>
      <path d="M66.833 120.99h8.783c.254 0 .458.21.458.472v19.53l-4.814 5.35-4.886-5.35v-19.53c0-.262.205-.473.46-.473z"
        fill="#0f0" />
      <path d="M66.374 168.508l4.885 5.35 4.816-5.35V142.05l-4.816 5.35-4.885-5.35z" fill="#0c0" />
    </g>
    <g>
      <text x="-144.399" y="89.201" transform="rotate(-90)" font-size="5.5">
        <tspan>Example Scenarios</tspan>
      </text>
      <path
        d="M82.708 147.448h8.783c.254 0 .458.21.458.473v26.408l-4.814 5.35-4.886-5.35v-26.408c0-.262.205-.473.46-.473z"
        fill="#0f0" />
      <path d="M82.25 226.187l4.884 5.35 4.816-5.35v-50.8l-4.816 5.35-4.885-5.35z" fill="#0c0" />
      <path d="M82.25 293.392l4.884 5.35 4.816-5.35v-66.146l-4.816 5.35-4.885-5.35z" fill="green" />
    </g>
    <g>
      <text x="-179.954" y="104.496" transform="rotate(-90)" font-size="5.5">
        <tspan>WhatsApp Web-Connector</tspan>
      </text>
      <path d="M98.583 184.49h8.783c.254 0 .458.21.458.472v19.53l-4.814 5.35-4.886-5.35v-19.53c0-.262.205-.473.46-.473z"
        fill="#0f0" />
      <path d="M98.124 232.008l4.885 5.35 4.816-5.35V205.55l-4.816 5.35-4.885-5.35z" fill="#0c0" />
    </g>
    <g>
      <text x="-57.592" y="115.718" transform="rotate(-90)" font-size="5.5">
        <tspan x="-57.592" y="115.718">
          <tspan>Documentation,</tspan>
        </tspan>
        <tspan x="-57.592" y="122.593">
          <tspan>Publications, Reports</tspan>
        </tspan>
      </text>
      <path
        d="M114.458 59.077h8.783c.254 0 .458.21.458.473v233.842l-4.814 5.35-4.886-5.35V59.55c0-.262.205-.473.46-.473z"
        fill="green" />
    </g>
  </g>
  <g>
    <rect width="10" height="43" y="36.323" ry=".661" fill="#b3b3b3" />
    <text x="-58.102" y="6.999" transform="rotate(-90)" font-size="5.5">
      <tspan style="text-align:center" text-anchor="middle">MAR</tspan>
    </text>
    <rect width="10" height="43" y="80.244" ry=".661" fill="#b3b3b3" />
    <text x="-102.023" y="6.999" transform="rotate(-90)" font-size="5.5">
      <tspan style="text-align:center" text-anchor="middle">APR</tspan>
    </text>
    <rect width="10" height="43" y="124.164" ry=".661" fill="#b3b3b3" />
    <text x="-145.944" y="6.999" transform="rotate(-90)" font-size="5.5">
      <tspan style="text-align:center" text-anchor="middle">MAY</tspan>
    </text>
    <rect width="10" height="43" y="168.085" ry=".661" fill="#b3b3b3" />
    <text x="-189.865" y="6.999" transform="rotate(-90)" font-size="5.5">
      <tspan style="text-align:center" text-anchor="middle">JUN</tspan>
    </text>
    <rect width="10" height="43" y="212.006" ry=".661" fill="#b3b3b3" />
    <text x="-233.785" y="6.999" transform="rotate(-90)" font-size="5.5">
      <tspan style="text-align:center" text-anchor="middle">JUL</tspan>
    </text>
    <rect width="10" height="43" y="255.927" ry=".661" fill="#b3b3b3" />
    <text x="-277.706" y="6.999" transform="rotate(-90)" font-size="5.5">
      <tspan style="text-align:center" text-anchor="middle">AUG</tspan>
    </text>
  </g>
</svg>