<?xml version="1.0" encoding="UTF-8" standalone="no"?>
<svg
   viewBox="0 0 84 84"
   version="1.1"
   id="svg27"
   sodipodi:docname="favicon.svg"
   width="84"
   height="84"
   inkscape:version="1.3.2 (091e20e, 2023-11-25, custom)"
   inkscape:export-filename="favicon.png"
   inkscape:export-xdpi="292.57144"
   inkscape:export-ydpi="292.57144"
   xmlns:inkscape="http://www.inkscape.org/namespaces/inkscape"
   xmlns:sodipodi="http://sodipodi.sourceforge.net/DTD/sodipodi-0.dtd"
   xmlns="http://www.w3.org/2000/svg"
   xmlns:svg="http://www.w3.org/2000/svg">
  <defs
     id="defs27" />
  <sodipodi:namedview
     id="namedview27"
     pagecolor="#505050"
     bordercolor="#ffffff"
     borderopacity="1"
     inkscape:showpageshadow="0"
     inkscape:pageopacity="0"
     inkscape:pagecheckerboard="1"
     inkscape:deskcolor="#505050"
     inkscape:zoom="8.3888886"
     inkscape:cx="53.28477"
     inkscape:cy="31.4702"
     inkscape:window-width="2560"
     inkscape:window-height="1417"
     inkscape:window-x="-8"
     inkscape:window-y="-8"
     inkscape:window-maximized="1"
     inkscape:current-layer="svg27" />
  <path
     d="M 28.883163,54.817273 2.7499998,39.090234 54.953578,7.7499876 81.18478,23.419457 Z"
     fill="#00ff00"
     id="path1"
     style="fill:none;stroke:#00ff00;stroke-width:3;stroke-linejoin:round;stroke-dasharray:none" />
  <path
     d="M 2.7813738,60.116317 2.7499998,39.090234 28.883163,54.817273 v 20.969822 z"
     fill="#00d000"
     id="path2"
     style="fill:none;stroke:#00ff00;stroke-width:3;stroke-linejoin:round;stroke-dasharray:none" />
  <g
     paint-order="stroke fill markers"
     id="g11"
     transform="matrix(1.3072464,0,0,1.3084059,-26.009421,-15.801319)"
     style="fill:none;stroke:#00ff00;stroke-width:2.29388309;stroke-linejoin:round;stroke-dasharray:none">
    <g
       transform="matrix(1,0,0,1.002,50.227,-219.795)"
       id="g3"
       style="fill:none;stroke:#00ff00;stroke-width:2.29159265;stroke-linejoin:round;stroke-dasharray:none">
      <path
         d="m -12.264,265.233 v 2.12 c 0,1.656 1.79,3 4,3 2.21,0 4,-1.344 4,-3 v -2.12 c 0,1.656 -1.791,3 -4,3 -2.209,0 -4,-1.344 -4,-3 z"
         fill="#00a000"
         id="path3"
         style="fill:none;stroke:#00ff00;stroke-width:2.29159265;stroke-linejoin:round;stroke-dasharray:none" />
      <ellipse
         ry="3"
         rx="4"
         cy="265.233"
         cx="-8.2639999"
         fill="#00d000"
         id="ellipse3"
         style="fill:none;stroke:#00ff00;stroke-width:2.29159265;stroke-linejoin:round;stroke-dasharray:none" />
    </g>
    <g
       transform="matrix(1,0,0,1.002,60.223,-225.805)"
       id="g4"
       style="fill:none;stroke:#00ff00;stroke-width:2.29159265;stroke-linejoin:round;stroke-dasharray:none">
      <path
         d="m -12.264,265.233 v 2.12 c 0,1.656 1.79,3 4,3 2.21,0 4,-1.344 4,-3 v -2.12 c 0,1.656 -1.791,3 -4,3 -2.209,0 -4,-1.344 -4,-3 z"
         fill="#00a000"
         id="path4"
         style="fill:none;stroke:#00ff00;stroke-width:2.29159265;stroke-linejoin:round;stroke-dasharray:none" />
      <ellipse
         cx="-8.2639999"
         cy="265.233"
         rx="4"
         ry="3"
         fill="#00d000"
         id="ellipse4"
         style="fill:none;stroke:#00ff00;stroke-width:2.29159265;stroke-linejoin:round;stroke-dasharray:none" />
    </g>
    <g
       transform="matrix(1,0,0,1.002,70.219,-231.815)"
       id="g5"
       style="fill:none;stroke:#00ff00;stroke-width:2.29159265;stroke-linejoin:round;stroke-dasharray:none">
      <path
         d="m -12.264,265.233 v 2.12 c 0,1.656 1.79,3 4,3 2.21,0 4,-1.344 4,-3 v -2.12 c 0,1.656 -1.791,3 -4,3 -2.209,0 -4,-1.344 -4,-3 z"
         fill="#00a000"
         id="path5"
         style="fill:none;stroke:#00ff00;stroke-width:2.29159265;stroke-linejoin:round;stroke-dasharray:none" />
      <ellipse
         ry="3"
         rx="4"
         cy="265.233"
         cx="-8.2639999"
         fill="#00d000"
         id="ellipse5"
         style="fill:none;stroke:#00ff00;stroke-width:2.29159265;stroke-linejoin:round;stroke-dasharray:none" />
    </g>
    <g
       transform="matrix(1,0,0,1.002,80.215,-237.825)"
       id="g6"
       style="fill:none;stroke:#00ff00;stroke-width:2.29159265;stroke-linejoin:round;stroke-dasharray:none">
      <path
         d="m -12.264,265.233 v 2.12 c 0,1.656 1.79,3 4,3 2.21,0 4,-1.344 4,-3 v -2.12 c 0,1.656 -1.791,3 -4,3 -2.209,0 -4,-1.344 -4,-3 z"
         fill="#00a000"
         id="path6"
         style="fill:none;stroke:#00ff00;stroke-width:2.29159265;stroke-linejoin:round;stroke-dasharray:none" />
      <ellipse
         cx="-8.2639999"
         cy="265.233"
         rx="4"
         ry="3"
         fill="#00d000"
         id="ellipse6"
         style="fill:none;stroke:#00ff00;stroke-width:2.29159265;stroke-linejoin:round;stroke-dasharray:none" />
    </g>
    <g
       transform="matrix(1,0,0,1.002,40.23,-225.805)"
       id="g7"
       style="fill:none;stroke:#00ff00;stroke-width:2.29159265;stroke-linejoin:round;stroke-dasharray:none">
      <path
         d="m -12.264,265.233 v 2.12 c 0,1.656 1.79,3 4,3 2.21,0 4,-1.344 4,-3 v -2.12 c 0,1.656 -1.791,3 -4,3 -2.209,0 -4,-1.344 -4,-3 z"
         fill="#00a000"
         id="path7"
         style="fill:none;stroke:#00ff00;stroke-width:2.29159265;stroke-linejoin:round;stroke-dasharray:none" />
      <ellipse
         cx="-8.2639999"
         cy="265.233"
         rx="4"
         ry="3"
         fill="#00d000"
         id="ellipse7"
         style="fill:none;stroke:#00ff00;stroke-width:2.29159265;stroke-linejoin:round;stroke-dasharray:none" />
    </g>
    <g
       transform="matrix(1,0,0,1.002,50.227,-231.815)"
       id="g8"
       style="fill:none;stroke:#00ff00;stroke-width:2.29159265;stroke-linejoin:round;stroke-dasharray:none">
      <path
         d="m -12.264,265.233 v 2.12 c 0,1.656 1.79,3 4,3 2.21,0 4,-1.344 4,-3 v -2.12 c 0,1.656 -1.791,3 -4,3 -2.209,0 -4,-1.344 -4,-3 z"
         fill="#00a000"
         id="path8"
         style="fill:none;stroke:#00ff00;stroke-width:2.29159265;stroke-linejoin:round;stroke-dasharray:none" />
      <ellipse
         ry="3"
         rx="4"
         cy="265.233"
         cx="-8.2639999"
         fill="#00d000"
         id="ellipse8"
         style="fill:none;stroke:#00ff00;stroke-width:2.29159265;stroke-linejoin:round;stroke-dasharray:none" />
    </g>
    <g
       transform="matrix(1,0,0,1.002,60.223,-237.825)"
       id="g9"
       style="fill:none;stroke:#00ff00;stroke-width:2.29159265;stroke-linejoin:round;stroke-dasharray:none">
      <path
         d="m -12.264,265.233 v 2.12 c 0,1.656 1.79,3 4,3 2.21,0 4,-1.344 4,-3 v -2.12 c 0,1.656 -1.791,3 -4,3 -2.209,0 -4,-1.344 -4,-3 z"
         fill="#00a000"
         id="path9"
         style="fill:none;stroke:#00ff00;stroke-width:2.29159265;stroke-linejoin:round;stroke-dasharray:none" />
      <ellipse
         cx="-8.2639999"
         cy="265.233"
         rx="4"
         ry="3"
         fill="#00d000"
         id="ellipse9"
         style="fill:none;stroke:#00ff00;stroke-width:2.29159265;stroke-linejoin:round;stroke-dasharray:none" />
    </g>
    <g
       transform="matrix(1,0,0,1.002,70.219,-243.835)"
       id="g10"
       style="fill:none;stroke:#00ff00;stroke-width:2.29159265;stroke-linejoin:round;stroke-dasharray:none">
      <path
         d="m -12.264,265.233 v 2.12 c 0,1.656 1.79,3 4,3 2.21,0 4,-1.344 4,-3 v -2.12 c 0,1.656 -1.791,3 -4,3 -2.209,0 -4,-1.344 -4,-3 z"
         fill="#00a000"
         id="path10"
         style="fill:none;stroke:#00ff00;stroke-width:2.29159265;stroke-linejoin:round;stroke-dasharray:none" />
      <ellipse
         ry="3"
         rx="4"
         cy="265.233"
         cx="-8.2639999"
         fill="#00d000"
         id="ellipse10"
         style="fill:none;stroke:#00ff00;stroke-width:2.29159265;stroke-linejoin:round;stroke-dasharray:none" />
    </g>
  </g>
  <path
     d="m 28.948526,75.787095 -0.06536,-20.968513 52.366987,-31.399125 -5.188464,8.59361 -0.01961,15.503301 z"
     fill="#00a000"
     id="path11"
     style="fill:none;stroke:#00ff00;stroke-width:3;stroke-linejoin:round;stroke-dasharray:none" />
</svg>
