<?xml version="1.0" encoding="UTF-8" standalone="no"?>
<svg
   viewBox="0 0 84 84"
   version="1.1"
   id="svg27"
   sodipodi:docname="favicon.svg"
   width="84"
   height="84"
   inkscape:version="1.3.2 (091e20e, 2023-11-25, custom)"
   xmlns:inkscape="http://www.inkscape.org/namespaces/inkscape"
   xmlns:sodipodi="http://sodipodi.sourceforge.net/DTD/sodipodi-0.dtd"
   xmlns="http://www.w3.org/2000/svg"
   xmlns:svg="http://www.w3.org/2000/svg">
  <defs
     id="defs27" />
  <sodipodi:namedview
     id="namedview27"
     pagecolor="#505050"
     bordercolor="#ffffff"
     borderopacity="1"
     inkscape:showpageshadow="0"
     inkscape:pageopacity="0"
     inkscape:pagecheckerboard="1"
     inkscape:deskcolor="#505050"
     inkscape:zoom="11.86368"
     inkscape:cx="48.087944"
     inkscape:cy="38.52093"
     inkscape:window-width="2560"
     inkscape:window-height="1417"
     inkscape:window-x="2552"
     inkscape:window-y="-8"
     inkscape:window-maximized="1"
     inkscape:current-layer="svg27" />
  <g
     id="g28"
     transform="translate(0,6)">
    <path
       d="M 41.991,53.973 22,41.953 61.934,18 82,29.976 Z"
       fill="#00ff00"
       id="path1" />
    <path
       d="M 22.024,58.023 22,41.953 41.991,53.973 V 70 Z"
       fill="#00d000"
       id="path2" />
    <g
       paint-order="stroke fill markers"
       id="g11">
      <g
         transform="matrix(1,0,0,1.002,50.227,-219.795)"
         id="g3">
        <path
           d="m -12.264,265.233 v 2.12 c 0,1.656 1.79,3 4,3 2.21,0 4,-1.344 4,-3 v -2.12 c 0,1.656 -1.791,3 -4,3 -2.209,0 -4,-1.344 -4,-3 z"
           fill="#00a000"
           id="path3" />
        <ellipse
           ry="3"
           rx="4"
           cy="265.233"
           cx="-8.2639999"
           fill="#00d000"
           id="ellipse3" />
      </g>
      <g
         transform="matrix(1,0,0,1.002,60.223,-225.805)"
         id="g4">
        <path
           d="m -12.264,265.233 v 2.12 c 0,1.656 1.79,3 4,3 2.21,0 4,-1.344 4,-3 v -2.12 c 0,1.656 -1.791,3 -4,3 -2.209,0 -4,-1.344 -4,-3 z"
           fill="#00a000"
           id="path4" />
        <ellipse
           cx="-8.2639999"
           cy="265.233"
           rx="4"
           ry="3"
           fill="#00d000"
           id="ellipse4" />
      </g>
      <g
         transform="matrix(1,0,0,1.002,70.219,-231.815)"
         id="g5">
        <path
           d="m -12.264,265.233 v 2.12 c 0,1.656 1.79,3 4,3 2.21,0 4,-1.344 4,-3 v -2.12 c 0,1.656 -1.791,3 -4,3 -2.209,0 -4,-1.344 -4,-3 z"
           fill="#00a000"
           id="path5" />
        <ellipse
           ry="3"
           rx="4"
           cy="265.233"
           cx="-8.2639999"
           fill="#00d000"
           id="ellipse5" />
      </g>
      <g
         transform="matrix(1,0,0,1.002,80.215,-237.825)"
         id="g6">
        <path
           d="m -12.264,265.233 v 2.12 c 0,1.656 1.79,3 4,3 2.21,0 4,-1.344 4,-3 v -2.12 c 0,1.656 -1.791,3 -4,3 -2.209,0 -4,-1.344 -4,-3 z"
           fill="#00a000"
           id="path6" />
        <ellipse
           cx="-8.2639999"
           cy="265.233"
           rx="4"
           ry="3"
           fill="#00d000"
           id="ellipse6" />
      </g>
      <g
         transform="matrix(1,0,0,1.002,40.23,-225.805)"
         id="g7">
        <path
           d="m -12.264,265.233 v 2.12 c 0,1.656 1.79,3 4,3 2.21,0 4,-1.344 4,-3 v -2.12 c 0,1.656 -1.791,3 -4,3 -2.209,0 -4,-1.344 -4,-3 z"
           fill="#00a000"
           id="path7" />
        <ellipse
           cx="-8.2639999"
           cy="265.233"
           rx="4"
           ry="3"
           fill="#00d000"
           id="ellipse7" />
      </g>
      <g
         transform="matrix(1,0,0,1.002,50.227,-231.815)"
         id="g8">
        <path
           d="m -12.264,265.233 v 2.12 c 0,1.656 1.79,3 4,3 2.21,0 4,-1.344 4,-3 v -2.12 c 0,1.656 -1.791,3 -4,3 -2.209,0 -4,-1.344 -4,-3 z"
           fill="#00a000"
           id="path8" />
        <ellipse
           ry="3"
           rx="4"
           cy="265.233"
           cx="-8.2639999"
           fill="#00d000"
           id="ellipse8" />
      </g>
      <g
         transform="matrix(1,0,0,1.002,60.223,-237.825)"
         id="g9">
        <path
           d="m -12.264,265.233 v 2.12 c 0,1.656 1.79,3 4,3 2.21,0 4,-1.344 4,-3 v -2.12 c 0,1.656 -1.791,3 -4,3 -2.209,0 -4,-1.344 -4,-3 z"
           fill="#00a000"
           id="path9" />
        <ellipse
           cx="-8.2639999"
           cy="265.233"
           rx="4"
           ry="3"
           fill="#00d000"
           id="ellipse9" />
      </g>
      <g
         transform="matrix(1,0,0,1.002,70.219,-243.835)"
         id="g10">
        <path
           d="m -12.264,265.233 v 2.12 c 0,1.656 1.79,3 4,3 2.21,0 4,-1.344 4,-3 v -2.12 c 0,1.656 -1.791,3 -4,3 -2.209,0 -4,-1.344 -4,-3 z"
           fill="#00a000"
           id="path10" />
        <ellipse
           ry="3"
           rx="4"
           cy="265.233"
           cx="-8.2639999"
           fill="#00d000"
           id="ellipse10" />
      </g>
    </g>
    <path
       d="M 42.041,70 41.991,53.974 82.05,29.976 78.081,36.544 78.066,48.393 Z"
       fill="#00a000"
       id="path11" />
    <g
       transform="matrix(-1,0,-0.08785,0.99613,82.578,-216.02)"
       fill="#007000"
       paint-order="stroke fill markers"
       id="g13">
      <ellipse
         cx="-7.7909999"
         cy="264.177"
         rx="2"
         ry="3.0120001"
         id="ellipse11" />
      <ellipse
         ry="3.0120001"
         rx="2"
         cy="267.48001"
         cx="-2.5739999"
         id="ellipse12" />
      <ellipse
         cx="2.642"
         cy="270.784"
         rx="2"
         ry="3.0120001"
         id="ellipse13" />
    </g>
    <g
       id="g27">
      <path
         d="M 42.009,37.973 62,25.953 22.066,2 2,13.976 Z"
         fill="#008000"
         id="path13" />
      <path
         d="M 61.976,42.023 62,25.953 42.009,37.973 V 54 Z"
         fill="#006000"
         id="path14" />
      <path
         d="M 42.009,54 42.059,37.974 2,13.976 5.969,20.544 5.984,32.393 Z"
         fill="#007000"
         id="path15" />
      <g
         paint-order="stroke fill markers"
         id="g24">
        <g
           transform="matrix(1,0,0,1.002,-10.578,-111.325)"
           id="g16">
          <path
             d="m 56.633,140.971 v 2.12 c 0,1.657 -1.791,3 -4,3 -2.21,0 -4,-1.343 -4,-3 v -2.12 c 0,1.657 1.79,3 4,3 2.209,0 4,-1.343 4,-3 z"
             fill="#006000"
             id="path16" />
          <ellipse
             cx="-52.632999"
             cy="140.97099"
             rx="4"
             ry="3"
             transform="scale(-1,1)"
             fill="#007000"
             id="ellipse16" />
        </g>
        <g
           transform="matrix(1,0,0,1.002,-10.578,-111.325)"
           id="g17">
          <path
             d="m 46.633,134.971 v 2.12 c 0,1.657 -1.791,3 -4,3 -2.21,0 -4,-1.343 -4,-3 v -2.12 c 0,1.657 1.79,3 4,3 2.209,0 4,-1.343 4,-3 z"
             fill="#006000"
             id="path17" />
          <ellipse
             ry="3"
             rx="4"
             cy="134.97099"
             cx="-42.632999"
             transform="scale(-1,1)"
             fill="#007000"
             id="ellipse17" />
        </g>
        <g
           transform="matrix(1,0,0,1.002,-10.578,-111.325)"
           id="g18">
          <path
             d="m 36.633,128.971 v 2.12 c 0,1.657 -1.791,3 -4,3 -2.21,0 -4,-1.343 -4,-3 v -2.12 c 0,1.657 1.79,3 4,3 2.209,0 4,-1.343 4,-3 z"
             fill="#006000"
             id="path18" />
          <ellipse
             cx="-32.632999"
             cy="128.97099"
             rx="4"
             ry="3"
             transform="scale(-1,1)"
             fill="#007000"
             id="ellipse18" />
        </g>
        <g
           transform="matrix(1,0,0,1.002,-10.578,-111.325)"
           id="g19">
          <path
             d="m 26.633,122.971 v 2.12 c 0,1.657 -1.791,3 -4,3 -2.21,0 -4,-1.343 -4,-3 v -2.12 c 0,1.657 1.79,3 4,3 2.209,0 4,-1.343 4,-3 z"
             fill="#006000"
             id="path19" />
          <ellipse
             ry="3"
             rx="4"
             cy="122.971"
             cx="-22.632999"
             transform="scale(-1,1)"
             fill="#007000"
             id="ellipse19" />
        </g>
        <g
           transform="matrix(1,0,0,1.002,-10.578,-111.325)"
           id="g20">
          <path
             d="m 66.633,134.971 v 2.12 c 0,1.657 -1.791,3 -4,3 -2.21,0 -4,-1.343 -4,-3 v -2.12 c 0,1.657 1.79,3 4,3 2.209,0 4,-1.343 4,-3 z"
             fill="#006000"
             id="path20" />
          <ellipse
             ry="3"
             rx="4"
             cy="134.97099"
             cx="-62.632999"
             transform="scale(-1,1)"
             fill="#007000"
             id="ellipse20" />
        </g>
        <g
           transform="matrix(1,0,0,1.002,-10.578,-111.325)"
           id="g21">
          <path
             d="m 56.633,128.971 v 2.12 c 0,1.657 -1.791,3 -4,3 -2.21,0 -4,-1.343 -4,-3 v -2.12 c 0,1.657 1.79,3 4,3 2.209,0 4,-1.343 4,-3 z"
             fill="#006000"
             id="path21" />
          <ellipse
             cx="-52.632999"
             cy="128.97099"
             rx="4"
             ry="3"
             transform="scale(-1,1)"
             fill="#007000"
             id="ellipse21" />
        </g>
        <g
           transform="matrix(1,0,0,1.002,-10.578,-111.325)"
           id="g22">
          <path
             d="m 46.633,122.971 v 2.12 c 0,1.657 -1.791,3 -4,3 -2.21,0 -4,-1.343 -4,-3 v -2.12 c 0,1.657 1.79,3 4,3 2.209,0 4,-1.343 4,-3 z"
             fill="#006000"
             id="path22" />
          <ellipse
             ry="3"
             rx="4"
             cy="122.971"
             cx="-42.632999"
             transform="scale(-1,1)"
             fill="#007000"
             id="ellipse22" />
        </g>
        <g
           transform="matrix(1,0,0,1.002,-10.578,-111.325)"
           id="g23">
          <path
             d="m 36.633,116.971 v 2.12 c 0,1.657 -1.791,3 -4,3 -2.21,0 -4,-1.343 -4,-3 v -2.12 c 0,1.657 1.79,3 4,3 2.209,0 4,-1.343 4,-3 z"
             fill="#006000"
             id="path23" />
          <ellipse
             cx="-32.632999"
             cy="116.971"
             rx="4"
             ry="3"
             transform="scale(-1,1)"
             fill="#007000"
             id="ellipse23" />
        </g>
      </g>
      <g
         transform="matrix(1,0,0.08785,0.99613,1.9,-232.225)"
         fill="#00ff00"
         paint-order="stroke fill markers"
         id="g26">
        <ellipse
           ry="3.0120001"
           rx="2"
           cy="264.177"
           cx="-7.7909999"
           id="ellipse24" />
        <ellipse
           cx="-2.5739999"
           cy="267.48001"
           rx="2"
           ry="3.0120001"
           id="ellipse25" />
        <ellipse
           ry="3.0120001"
           rx="2"
           cy="270.784"
           cx="2.642"
           id="ellipse26" />
      </g>
    </g>
  </g>
</svg>
