<svg viewBox="0 0 194 72" xmlns="http://www.w3.org/2000/svg">
  <path d="M41.991 53.973L22 41.953 61.934 18 82 29.976z" fill="lime" />
  <path d="M22.024 58.023L22 41.953l19.991 12.02V70z" fill="#00d000" />
  <g>
    <g transform="matrix(1 0 0 1 50.227 -219.795)">
      <path d="M-12.264 265.233v2.12c0 1.656 1.79 3 4 3s4-1.344 4-3v-2.12c0 1.656-1.791 3-4 3s-4-1.344-4-3z"
        fill="#00a000" />
      <ellipse ry="3" rx="4" cy="265.233" cx="-8.264" fill="#00d000" />
    </g>
    <g transform="matrix(1 0 0 1 60.223 -225.805)">
      <path d="M-12.264 265.233v2.12c0 1.656 1.79 3 4 3s4-1.344 4-3v-2.12c0 1.656-1.791 3-4 3s-4-1.344-4-3z"
        fill="#00a000" />
      <ellipse cx="-8.264" cy="265.233" rx="4" ry="3" fill="#00d000" />
    </g>
    <g transform="matrix(1 0 0 1 70.219 -231.815)">
      <path d="M-12.264 265.233v2.12c0 1.656 1.79 3 4 3s4-1.344 4-3v-2.12c0 1.656-1.791 3-4 3s-4-1.344-4-3z"
        fill="#00a000" />
      <ellipse ry="3" rx="4" cy="265.233" cx="-8.264" fill="#00d000" />
    </g>
    <g transform="matrix(1 0 0 1 80.215 -237.825)">
      <path d="M-12.264 265.233v2.12c0 1.656 1.79 3 4 3s4-1.344 4-3v-2.12c0 1.656-1.791 3-4 3s-4-1.344-4-3z"
        fill="#00a000" />
      <ellipse cx="-8.264" cy="265.233" rx="4" ry="3" fill="#00d000" />
    </g>
    <g transform="matrix(1 0 0 1 40.23 -225.805)">
      <path d="M-12.264 265.233v2.12c0 1.656 1.79 3 4 3s4-1.344 4-3v-2.12c0 1.656-1.791 3-4 3s-4-1.344-4-3z"
        fill="#00a000" />
      <ellipse cx="-8.264" cy="265.233" rx="4" ry="3" fill="#00d000" />
    </g>
    <g transform="matrix(1 0 0 1 50.227 -231.815)">
      <path d="M-12.264 265.233v2.12c0 1.656 1.79 3 4 3s4-1.344 4-3v-2.12c0 1.656-1.791 3-4 3s-4-1.344-4-3z"
        fill="#00a000" />
      <ellipse ry="3" rx="4" cy="265.233" cx="-8.264" fill="#00d000" />
    </g>
    <g transform="matrix(1 0 0 1 60.223 -237.825)">
      <path d="M-12.264 265.233v2.12c0 1.656 1.79 3 4 3s4-1.344 4-3v-2.12c0 1.656-1.791 3-4 3s-4-1.344-4-3z"
        fill="#00a000" />
      <ellipse cx="-8.264" cy="265.233" rx="4" ry="3" fill="#00d000" />
    </g>
    <g transform="matrix(1 0 0 1 70.219 -243.835)">
      <path d="M-12.264 265.233v2.12c0 1.656 1.79 3 4 3s4-1.344 4-3v-2.12c0 1.656-1.791 3-4 3s-4-1.344-4-3z"
        fill="#00a000" />
      <ellipse ry="3" rx="4" cy="265.233" cx="-8.264" fill="#00d000" />
    </g>
  </g>
  <path d="M42.041 70l-.05-16.026L82.05 29.976l-3.969 6.568-.015 11.849z" fill="#00a000" />
  <g transform="matrix(-1 0 -.08785 .99613 82.578 -216.02)" fill="#007000">
    <ellipse cx="-7.791" cy="264.177" rx="2" ry="3.012" />
    <ellipse ry="3.012" rx="2" cy="267.48" cx="-2.574" />
    <ellipse cx="2.642" cy="270.784" rx="2" ry="3.012" />
  </g>
  <g>
    <path d="M42.009 37.973L62 25.953 22.066 2 2 13.976z" fill="green" />
    <path d="M61.976 42.023L62 25.953l-19.991 12.02V54z" fill="#006000" />
    <path d="M42.009 54l.05-16.026L2 13.976l3.969 6.568.015 11.849z" fill="#007000" />
    <g>
      <g transform="matrix(1 0 0 1 -10.578 -111.325)">
        <path
          d="M56.633 140.971v2.12c0 1.657-1.791 3-4 3-2.21 0-4-1.343-4-3v-2.12c0 1.657 1.79 3 4 3 2.209 0 4-1.343 4-3z"
          fill="#006000" />
        <ellipse cx="-52.633" cy="140.971" rx="4" ry="3" transform="scale(-1 1)" fill="#007000" />
      </g>
      <g transform="matrix(1 0 0 1 -10.578 -111.325)">
        <path
          d="M46.633 134.971v2.12c0 1.657-1.791 3-4 3-2.21 0-4-1.343-4-3v-2.12c0 1.657 1.79 3 4 3 2.209 0 4-1.343 4-3z"
          fill="#006000" />
        <ellipse ry="3" rx="4" cy="134.971" cx="-42.633" transform="scale(-1 1)" fill="#007000" />
      </g>
      <g transform="matrix(1 0 0 1 -10.578 -111.325)">
        <path
          d="M36.633 128.971v2.12c0 1.657-1.791 3-4 3-2.21 0-4-1.343-4-3v-2.12c0 1.657 1.79 3 4 3 2.209 0 4-1.343 4-3z"
          fill="#006000" />
        <ellipse cx="-32.633" cy="128.971" rx="4" ry="3" transform="scale(-1 1)" fill="#007000" />
      </g>
      <g transform="matrix(1 0 0 1 -10.578 -111.325)">
        <path
          d="M26.633 122.971v2.12c0 1.657-1.791 3-4 3-2.21 0-4-1.343-4-3v-2.12c0 1.657 1.79 3 4 3 2.209 0 4-1.343 4-3z"
          fill="#006000" />
        <ellipse ry="3" rx="4" cy="122.971" cx="-22.633" transform="scale(-1 1)" fill="#007000" />
      </g>
      <g transform="matrix(1 0 0 1 -10.578 -111.325)">
        <path
          d="M66.633 134.971v2.12c0 1.657-1.791 3-4 3-2.21 0-4-1.343-4-3v-2.12c0 1.657 1.79 3 4 3 2.209 0 4-1.343 4-3z"
          fill="#006000" />
        <ellipse ry="3" rx="4" cy="134.971" cx="-62.633" transform="scale(-1 1)" fill="#007000" />
      </g>
      <g transform="matrix(1 0 0 1 -10.578 -111.325)">
        <path
          d="M56.633 128.971v2.12c0 1.657-1.791 3-4 3-2.21 0-4-1.343-4-3v-2.12c0 1.657 1.79 3 4 3 2.209 0 4-1.343 4-3z"
          fill="#006000" />
        <ellipse cx="-52.633" cy="128.971" rx="4" ry="3" transform="scale(-1 1)" fill="#007000" />
      </g>
      <g transform="matrix(1 0 0 1 -10.578 -111.325)">
        <path
          d="M46.633 122.971v2.12c0 1.657-1.791 3-4 3-2.21 0-4-1.343-4-3v-2.12c0 1.657 1.79 3 4 3 2.209 0 4-1.343 4-3z"
          fill="#006000" />
        <ellipse ry="3" rx="4" cy="122.971" cx="-42.633" transform="scale(-1 1)" fill="#007000" />
      </g>
      <g transform="matrix(1 0 0 1 -10.578 -111.325)">
        <path
          d="M36.633 116.971v2.12c0 1.657-1.791 3-4 3-2.21 0-4-1.343-4-3v-2.12c0 1.657 1.79 3 4 3 2.209 0 4-1.343 4-3z"
          fill="#006000" />
        <ellipse cx="-32.633" cy="116.971" rx="4" ry="3" transform="scale(-1 1)" fill="#007000" />
      </g>
    </g>
    <g transform="matrix(1 0 .08785 .99613 1.9 -232.225)" fill="lime">
      <ellipse ry="3.012" rx="2" cy="264.177" cx="-7.791" />
      <ellipse cx="-2.574" cy="267.48" rx="2" ry="3.012" />
      <ellipse ry="3.012" rx="2" cy="270.784" cx="2.642" />
    </g>
  </g>
  <g aria-label="CHAT" fill="lime">
    <path
      d="M113.208 5.916v4.102q-4.949-2.103-9.104-2.103-5.333 0-8.985 2.998-3.65 2.978-3.65 7.33 0 4.435 3.723 7.413 3.747 2.957 9.368 2.957 4.084 0 8.648-2.228v4.144q-4.156 1.915-9.009 1.915-7.11 0-12.155-4.165Q87 24.095 87 18.202q0-5.789 4.949-9.913 4.972-4.123 11.963-4.123 4.492 0 9.296 1.75zm5.117-.896h4.179v10.203h14.63V5.02h4.131v26.528h-4.131V18.805h-14.63v12.743h-4.179zM159.305 4l14.463 27.548h-4.372l-3.58-6.787H152.82l-3.483 6.788h-4.349zm0 8.309l-4.924 9.433h9.85zm13.982-7.289H192v3.624h-7.302v22.904h-4.133V8.644h-7.278z" />
  </g>
  <g aria-label="ALLY" fill="green">
    <path
      d="M100.312 39.556h5.553L119.456 68h-7.201l-2.714-5.59H96.787L94.177 68H87zm2.79 9.315l-3.88 8.384h7.885zm21.552-9.315h7.126V61.87h9.812V68h-16.938zm22.161 0h7.126V61.87h9.812V68h-16.938zm16.887 0h7.937l6.136 8.839 6.237-8.84H192L181.401 54.7V68h-7.1V54.699z" />
  </g>
</svg>