<svg xmlns="http://www.w3.org/2000/svg" width="280" height="100"><path d="M65 2c-8 9-20 12-32 13-1.1.3-.26 2.5-.5 3.6v8.8c12 .3 24-2 35-7A2 2 0 0170 22l-.1 35v.1c.2 6-.3 13-3.4 19 4-2 8-4 11-6 5.6 3.5 11 8 18 8.6 4.8.5-.1-6-1.6-8-2-3-4-6.5-4.7-10 5.4-6 7.7-14 7-22l.08-23C85 15 73 11 65 2z" fill="green"/><path d="M4.3 25c.05 12-.02 25 0 38 0 5 3 11 7 16.807a2 2 0 010 1.7c-1 2.7-3 5-4.7 6.9-.8.96-1.6 1.8-2 2.5 0 0-.523 1-.2.99v.145c-.002-.002.15.118.567.193.834.15 2.504.022 4.324-.396 3.64-.838 8-3 10-4a2 2 0 012 0c2.2 1.4 10 5 14 7C45 90 56 84 62 75a1.49 1.49 0 01.01-.02c3-5 4-12 4-19v-.064l.074-30.952C48.12 31.68 25.721 34.366 4.3 25zm15.034 30.48c3 0 5 2 5 4.5 0 2.6-2.1 4.6-5 4.6-3 0-5-2-5-4.6 0-2.5 2-4.5 5-4.5zm15.6 0c3 0 5 2 5 4.5 0 2.6-2.1 4.6-5 4.6-3 0-5-2-5-4.6 0-2.5 2-4.5 5-4.5zm15.6 0c3 0 5 2 5 4.5 0 2.6-2.1 4.6-5 4.6-3 0-5-2-5-4.6 0-2.5 2-4.5 5-4.5z" fill="lime"/><g aria-label="CHAT" fill="lime"><path d="M157.44 7.694v5.769q-7.07-2.958-13.006-2.958-7.619 0-12.835 4.217-5.216 4.187-5.216 10.307 0 6.237 5.32 10.425 5.353 4.158 13.383 4.158 5.834 0 12.354-3.133v5.827Q151.503 45 144.57 45q-10.158 0-17.364-5.857Q120 33.258 120 24.971q0-8.14 7.07-13.939 7.103-5.798 17.09-5.798 6.417 0 13.28 2.46zM164.75 6.435h5.97v14.348h20.9V6.435h5.902V43.74h-5.902V25.82h-20.9v17.92h-5.97zM223.294 5l20.66 38.74h-6.246l-5.114-9.545H214.03l-4.976 9.546h-6.212zm0 11.684l-7.035 13.265h14.07zM243.267 6.435H270v5.095h-10.432v32.21h-5.903V11.53h-10.398z"/></g><g aria-label="ALLY" fill="green"><path d="M139.017 55h7.933l19.416 40h-10.288l-3.876-7.86h-18.22l-3.73 7.86H120zm3.985 13.1l-5.542 11.79h11.265zM173.791 55h10.18v31.379h14.017V95h-24.197zM205.45 55h10.18v31.379h14.017V95H205.45zM229.575 55h11.338l8.766 12.43 8.91-12.43H270l-15.141 21.295V95h-10.143V76.295z"/></g></svg>