<svg xmlns="http://www.w3.org/2000/svg" width="100" height="132"><path d="M80.643 46.282C64.729 52.25 47.82 54.24 30.91 50.261c-3.979-.995-7.957-2.387-11.637-3.979.05 11.936-.02 24.866 0 37.797 0 4.973 2.983 10.94 6.962 16.717a1.99 1.99 0 010 1.69c-.995 2.686-2.984 4.974-4.675 6.864-.795.954-1.591 1.79-1.99 2.486 0 0-.52.995-.198.985v.144c-.002-.002.15.118.564.192.83.15 2.49.022 4.3-.394 3.621-.833 7.958-2.984 9.947-3.978a1.99 1.99 0 011.99 0c2.188 1.392 9.946 4.973 13.924 6.962 9.657-4.813 20.598-10.78 26.566-19.733l.01-.02c2.984-4.973 3.979-11.935 3.979-18.898v-.063l.073-30.813zM34.227 76.6c2.984 0 4.973 1.99 4.973 4.476 0 2.586-2.089 4.575-4.973 4.575-2.984 0-4.973-1.989-4.973-4.575 0-2.487 1.99-4.476 4.973-4.476zm15.516 0c2.984 0 4.974 1.99 4.974 4.476 0 2.586-2.09 4.575-4.974 4.575-2.984 0-4.973-1.989-4.973-4.575 0-2.487 1.99-4.476 4.973-4.476zm15.517 0c2.984 0 4.973 1.99 4.973 4.476 0 2.586-2.089 4.575-4.973 4.575-2.984 0-4.973-1.989-4.973-4.575 0-2.487 1.989-4.476 4.973-4.476z" fill="#0f0"/><path d="M43.825 2H56.17a22.347 22.347 0 0122.396 22.396c0 22.475.029 22.396-10.002 22.396H32.117c-10.646 0-10.688-.042-10.688-22.396A22.347 22.347 0 0143.825 2z" fill="#0f0"/><rect width="48.474" height="30.383" x="25.717" y="16.409" ry="4.46" fill="green"/><path d="M49.859 39.81c4.228 0 7.292-1.074 7.292.894s-3.428 3.563-7.656 3.563c-4.229 0-7.656-1.595-7.656-3.563 0-1.968 3.791-.895 8.02-.895z" fill="#fff"/><ellipse cx="59.81" cy="31.601" rx="4.593" ry="6.198" fill="#fff"/><path d="M61.993 37.053a2.373 3.186 0 00.026-.064 2.373 3.186 0 00.048-.146 2.373 3.186 0 00.043-.147 2.373 3.186 0 00.039-.152 2.373 3.186 0 00.033-.153 2.373 3.186 0 00.025-.156 2.373 3.186 0 00.021-.157 2.373 3.186 0 00.016-.157 2.373 3.186 0 00.008-.16 2.373 3.186 0 00.004-.16 2.373 3.186 0 00-.002-.061 2.373 3.186 0 00-.004-.16 2.373 3.186 0 00-.012-.159 2.373 3.186 0 00-.017-.157 2.373 3.186 0 00-.024-.158 2.373 3.186 0 00-.029-.153 2.373 3.186 0 00-.033-.153 2.373 3.186 0 00-.04-.15 2.373 3.186 0 00-.047-.148 2.373 3.186 0 00-.05-.143 2.373 3.186 0 00-.057-.14 2.373 3.186 0 00-.062-.136 2.373 3.186 0 00-.066-.132 2.373 3.186 0 00-.072-.129 2.373 3.186 0 00-.076-.122 2.373 3.186 0 00-.08-.117 2.373 3.186 0 00-.085-.11 2.373 3.186 0 00-.09-.107 2.373 3.186 0 00-.09-.1 2.373 3.186 0 00-.098-.093 2.373 3.186 0 00-.1-.087 2.373 3.186 0 00-.102-.08 2.373 3.186 0 00-.105-.073 2.373 3.186 0 00-.109-.065 2.373 3.186 0 00-.11-.06 2.373 3.186 0 00-.113-.05 2.373 3.186 0 00-.115-.043 2.373 3.186 0 00-.114-.035 2.373 3.186 0 00-.117-.03 2.373 3.186 0 00-.118-.019A2.373 3.186 0 0060 32.42a2.373 3.186 0 00-.118-.004 2.373 3.186 0 00-.047 0 2.373 3.186 0 00-.118.008 2.373 3.186 0 00-.119.015 2.373 3.186 0 00-.118.022 2.373 3.186 0 00-.117.03 2.373 3.186 0 00-.115.04 2.373 3.186 0 00-.112.046 2.373 3.186 0 00-.113.055 2.373 3.186 0 00-.109.06 2.373 3.186 0 00-.107.07 2.373 3.186 0 00-.105.076 2.373 3.186 0 00-.1.081 2.373 3.186 0 00-.1.09 2.373 3.186 0 00-.095.097 2.373 3.186 0 00-.091.1 2.373 3.186 0 00-.088.11 2.373 3.186 0 00-.083.112 2.373 3.186 0 00-.078.12 2.373 3.186 0 00-.074.125 2.373 3.186 0 00-.07.128 2.373 3.186 0 00-.064.134 2.373 3.186 0 00-.06.138 2.373 3.186 0 00-.054.142 2.373 3.186 0 00-.049.146 2.373 3.186 0 00-.045.147 2.373 3.186 0 00-.036.152 2.373 3.186 0 00-.033.153 2.373 3.186 0 00-.026.156 2.373 3.186 0 00-.021.157 2.373 3.186 0 00-.016.157 2.373 3.186 0 00-.007.16 2.373 3.186 0 00-.004.159 2.373 3.186 0 00.002.062 2.373 3.186 0 00.004.16 2.373 3.186 0 00.011.159 2.373 3.186 0 00.018.157 2.373 3.186 0 00.023.157 2.373 3.186 0 00.027.154 2.373 3.186 0 00.035.153 2.373 3.186 0 00.041.15 2.373 3.186 0 00.045.148 2.373 3.186 0 00.052.143 2.373 3.186 0 00.056.14 4.593 6.198 0 000 .002 4.593 6.198 0 001.988.612 4.593 6.198 0 002.183-.746z"/><ellipse cx="40.099" cy="31.601" rx="4.593" ry="6.198" fill="#fff"/><path d="M42.282 37.053a2.373 3.186 0 00.026-.064 2.373 3.186 0 00.048-.146 2.373 3.186 0 00.043-.147 2.373 3.186 0 00.039-.152 2.373 3.186 0 00.033-.153 2.373 3.186 0 00.025-.156 2.373 3.186 0 00.021-.157 2.373 3.186 0 00.016-.157 2.373 3.186 0 00.008-.16 2.373 3.186 0 00.004-.16 2.373 3.186 0 00-.002-.061 2.373 3.186 0 00-.004-.16 2.373 3.186 0 00-.012-.159 2.373 3.186 0 00-.017-.157 2.373 3.186 0 00-.024-.158 2.373 3.186 0 00-.029-.153 2.373 3.186 0 00-.033-.153 2.373 3.186 0 00-.04-.15 2.373 3.186 0 00-.047-.148 2.373 3.186 0 00-.05-.143 2.373 3.186 0 00-.057-.14 2.373 3.186 0 00-.062-.136 2.373 3.186 0 00-.066-.132 2.373 3.186 0 00-.072-.129 2.373 3.186 0 00-.076-.122 2.373 3.186 0 00-.08-.117 2.373 3.186 0 00-.085-.11 2.373 3.186 0 00-.09-.107 2.373 3.186 0 00-.09-.1 2.373 3.186 0 00-.098-.093 2.373 3.186 0 00-.099-.087 2.373 3.186 0 00-.103-.08 2.373 3.186 0 00-.105-.073 2.373 3.186 0 00-.108-.065 2.373 3.186 0 00-.111-.06 2.373 3.186 0 00-.113-.05 2.373 3.186 0 00-.115-.043 2.373 3.186 0 00-.114-.035 2.373 3.186 0 00-.117-.03 2.373 3.186 0 00-.118-.019 2.373 3.186 0 00-.119-.011 2.373 3.186 0 00-.118-.004 2.373 3.186 0 00-.047 0 2.373 3.186 0 00-.118.008 2.373 3.186 0 00-.119.015 2.373 3.186 0 00-.118.022 2.373 3.186 0 00-.117.03 2.373 3.186 0 00-.115.04 2.373 3.186 0 00-.112.046 2.373 3.186 0 00-.113.055 2.373 3.186 0 00-.109.06 2.373 3.186 0 00-.106.07 2.373 3.186 0 00-.105.076 2.373 3.186 0 00-.101.081 2.373 3.186 0 00-.1.09 2.373 3.186 0 00-.095.097 2.373 3.186 0 00-.091.1 2.373 3.186 0 00-.087.11 2.373 3.186 0 00-.084.112 2.373 3.186 0 00-.078.12 2.373 3.186 0 00-.073.125 2.373 3.186 0 00-.07.128 2.373 3.186 0 00-.064.134 2.373 3.186 0 00-.06.138 2.373 3.186 0 00-.055.142 2.373 3.186 0 00-.049.146 2.373 3.186 0 00-.044.147 2.373 3.186 0 00-.037.152 2.373 3.186 0 00-.033.153 2.373 3.186 0 00-.026.156 2.373 3.186 0 00-.02.157 2.373 3.186 0 00-.016.157 2.373 3.186 0 00-.008.16 2.373 3.186 0 00-.004.159 2.373 3.186 0 00.002.062 2.373 3.186 0 00.004.16 2.373 3.186 0 00.011.159 2.373 3.186 0 00.018.157 2.373 3.186 0 00.023.157 2.373 3.186 0 00.027.154 2.373 3.186 0 00.035.153 2.373 3.186 0 00.041.15 2.373 3.186 0 00.045.148 2.373 3.186 0 00.052.143 2.373 3.186 0 00.057.14 4.593 6.198 0 000 .002 4.593 6.198 0 001.987.612 4.593 6.198 0 002.184-.746z"/><path d="M34.43 112.561a14.873 16.594 41.041 00-1.536.093 14.873 16.594 41.041 00-15.638 17.496h30.912a14.873 16.594 41.041 00.365-3.43A14.873 16.594 41.041 0034.43 112.56zM65.565 112.561a16.594 14.873 48.959 011.535.093A16.594 14.873 48.959 0182.74 130.15H51.827a16.594 14.873 48.959 01-.365-3.43 16.594 14.873 48.959 0114.103-14.159zM17.284 46.282c0-.41-.934-.502-1.385-.296C8.116 49.187 2 62.971 2 76.412c0 13.442 6.31 21.743 14.094 18.54.397-.164 1.19-.663 1.19-1.116V49.123zM82.716 46.22c0-.41.934-.503 1.385-.296C91.884 49.125 98 62.909 98 76.35c0 13.442-6.31 21.743-14.094 18.54-.397-.164-1.19-.663-1.19-1.116V49.061z" fill="green"/></svg>