<svg viewBox="0 0 84 72" xmlns="http://www.w3.org/2000/svg">
  <path d="M41.991 53.973L22 41.953 61.934 18 82 29.976z" fill="lime" />
  <path d="M22.024 58.023L22 41.953l19.991 12.02V70z" fill="#00d000" />
  <g paint-order="stroke fill markers">
    <g transform="matrix(1 0 0 1.002 50.227 -219.795)">
      <path d="M-12.264 265.233v2.12c0 1.656 1.79 3 4 3s4-1.344 4-3v-2.12c0 1.656-1.791 3-4 3s-4-1.344-4-3z"
        fill="#00a000" />
      <ellipse ry="3" rx="4" cy="265.233" cx="-8.264" fill="#00d000" />
    </g>
    <g transform="matrix(1 0 0 1.002 60.223 -225.805)">
      <path d="M-12.264 265.233v2.12c0 1.656 1.79 3 4 3s4-1.344 4-3v-2.12c0 1.656-1.791 3-4 3s-4-1.344-4-3z"
        fill="#00a000" />
      <ellipse cx="-8.264" cy="265.233" rx="4" ry="3" fill="#00d000" />
    </g>
    <g transform="matrix(1 0 0 1.002 70.219 -231.815)">
      <path d="M-12.264 265.233v2.12c0 1.656 1.79 3 4 3s4-1.344 4-3v-2.12c0 1.656-1.791 3-4 3s-4-1.344-4-3z"
        fill="#00a000" />
      <ellipse ry="3" rx="4" cy="265.233" cx="-8.264" fill="#00d000" />
    </g>
    <g transform="matrix(1 0 0 1.002 80.215 -237.825)">
      <path d="M-12.264 265.233v2.12c0 1.656 1.79 3 4 3s4-1.344 4-3v-2.12c0 1.656-1.791 3-4 3s-4-1.344-4-3z"
        fill="#00a000" />
      <ellipse cx="-8.264" cy="265.233" rx="4" ry="3" fill="#00d000" />
    </g>
    <g transform="matrix(1 0 0 1.002 40.23 -225.805)">
      <path d="M-12.264 265.233v2.12c0 1.656 1.79 3 4 3s4-1.344 4-3v-2.12c0 1.656-1.791 3-4 3s-4-1.344-4-3z"
        fill="#00a000" />
      <ellipse cx="-8.264" cy="265.233" rx="4" ry="3" fill="#00d000" />
    </g>
    <g transform="matrix(1 0 0 1.002 50.227 -231.815)">
      <path d="M-12.264 265.233v2.12c0 1.656 1.79 3 4 3s4-1.344 4-3v-2.12c0 1.656-1.791 3-4 3s-4-1.344-4-3z"
        fill="#00a000" />
      <ellipse ry="3" rx="4" cy="265.233" cx="-8.264" fill="#00d000" />
    </g>
    <g transform="matrix(1 0 0 1.002 60.223 -237.825)">
      <path d="M-12.264 265.233v2.12c0 1.656 1.79 3 4 3s4-1.344 4-3v-2.12c0 1.656-1.791 3-4 3s-4-1.344-4-3z"
        fill="#00a000" />
      <ellipse cx="-8.264" cy="265.233" rx="4" ry="3" fill="#00d000" />
    </g>
    <g transform="matrix(1 0 0 1.002 70.219 -243.835)">
      <path d="M-12.264 265.233v2.12c0 1.656 1.79 3 4 3s4-1.344 4-3v-2.12c0 1.656-1.791 3-4 3s-4-1.344-4-3z"
        fill="#00a000" />
      <ellipse ry="3" rx="4" cy="265.233" cx="-8.264" fill="#00d000" />
    </g>
  </g>
  <path d="M42.041 70l-.05-16.026L82.05 29.976l-3.969 6.568-.015 11.849z" fill="#00a000" />
  <g transform="matrix(-1 0 -.08785 .99613 82.578 -216.02)" fill="#007000" paint-order="stroke fill markers">
    <ellipse cx="-7.791" cy="264.177" rx="2" ry="3.012" />
    <ellipse ry="3.012" rx="2" cy="267.48" cx="-2.574" />
    <ellipse cx="2.642" cy="270.784" rx="2" ry="3.012" />
  </g>
  <g>
    <path d="M42.009 37.973L62 25.953 22.066 2 2 13.976z" fill="green" />
    <path d="M61.976 42.023L62 25.953l-19.991 12.02V54z" fill="#006000" />
    <path d="M42.009 54l.05-16.026L2 13.976l3.969 6.568.015 11.849z" fill="#007000" />
    <g paint-order="stroke fill markers">
      <g transform="matrix(1 0 0 1.002 -10.578 -111.325)">
        <path
          d="M56.633 140.971v2.12c0 1.657-1.791 3-4 3-2.21 0-4-1.343-4-3v-2.12c0 1.657 1.79 3 4 3 2.209 0 4-1.343 4-3z"
          fill="#006000" />
        <ellipse cx="-52.633" cy="140.971" rx="4" ry="3" transform="scale(-1 1)" fill="#007000" />
      </g>
      <g transform="matrix(1 0 0 1.002 -10.578 -111.325)">
        <path
          d="M46.633 134.971v2.12c0 1.657-1.791 3-4 3-2.21 0-4-1.343-4-3v-2.12c0 1.657 1.79 3 4 3 2.209 0 4-1.343 4-3z"
          fill="#006000" />
        <ellipse ry="3" rx="4" cy="134.971" cx="-42.633" transform="scale(-1 1)" fill="#007000" />
      </g>
      <g transform="matrix(1 0 0 1.002 -10.578 -111.325)">
        <path
          d="M36.633 128.971v2.12c0 1.657-1.791 3-4 3-2.21 0-4-1.343-4-3v-2.12c0 1.657 1.79 3 4 3 2.209 0 4-1.343 4-3z"
          fill="#006000" />
        <ellipse cx="-32.633" cy="128.971" rx="4" ry="3" transform="scale(-1 1)" fill="#007000" />
      </g>
      <g transform="matrix(1 0 0 1.002 -10.578 -111.325)">
        <path
          d="M26.633 122.971v2.12c0 1.657-1.791 3-4 3-2.21 0-4-1.343-4-3v-2.12c0 1.657 1.79 3 4 3 2.209 0 4-1.343 4-3z"
          fill="#006000" />
        <ellipse ry="3" rx="4" cy="122.971" cx="-22.633" transform="scale(-1 1)" fill="#007000" />
      </g>
      <g transform="matrix(1 0 0 1.002 -10.578 -111.325)">
        <path
          d="M66.633 134.971v2.12c0 1.657-1.791 3-4 3-2.21 0-4-1.343-4-3v-2.12c0 1.657 1.79 3 4 3 2.209 0 4-1.343 4-3z"
          fill="#006000" />
        <ellipse ry="3" rx="4" cy="134.971" cx="-62.633" transform="scale(-1 1)" fill="#007000" />
      </g>
      <g transform="matrix(1 0 0 1.002 -10.578 -111.325)">
        <path
          d="M56.633 128.971v2.12c0 1.657-1.791 3-4 3-2.21 0-4-1.343-4-3v-2.12c0 1.657 1.79 3 4 3 2.209 0 4-1.343 4-3z"
          fill="#006000" />
        <ellipse cx="-52.633" cy="128.971" rx="4" ry="3" transform="scale(-1 1)" fill="#007000" />
      </g>
      <g transform="matrix(1 0 0 1.002 -10.578 -111.325)">
        <path
          d="M46.633 122.971v2.12c0 1.657-1.791 3-4 3-2.21 0-4-1.343-4-3v-2.12c0 1.657 1.79 3 4 3 2.209 0 4-1.343 4-3z"
          fill="#006000" />
        <ellipse ry="3" rx="4" cy="122.971" cx="-42.633" transform="scale(-1 1)" fill="#007000" />
      </g>
      <g transform="matrix(1 0 0 1.002 -10.578 -111.325)">
        <path
          d="M36.633 116.971v2.12c0 1.657-1.791 3-4 3-2.21 0-4-1.343-4-3v-2.12c0 1.657 1.79 3 4 3 2.209 0 4-1.343 4-3z"
          fill="#006000" />
        <ellipse cx="-32.633" cy="116.971" rx="4" ry="3" transform="scale(-1 1)" fill="#007000" />
      </g>
    </g>
    <g transform="matrix(1 0 .08785 .99613 1.9 -232.225)" fill="lime" paint-order="stroke fill markers">
      <ellipse ry="3.012" rx="2" cy="264.177" cx="-7.791" />
      <ellipse cx="-2.574" cy="267.48" rx="2" ry="3.012" />
      <ellipse ry="3.012" rx="2" cy="270.784" cx="2.642" />
    </g>
  </g>
</svg>